<svg xmlns="http://www.w3.org/2000/svg" data-name="Layer 1" viewBox="0 0 128 128" x="0px" y="0px"><title>92 Miscellaneous 17 solid</title><path d="M126,47a2,2,0,0,0,1.33-3.41L107.12,23.34a2,2,0,0,0-2.18-.44,2,2,0,0,0-1.23,1.85V81.88a20.78,20.78,0,0,0-6.92-1.09c-5.4,0-11.21,1.77-11.21,5.67s5.81,5.66,11.21,5.66S108,90.35,108,86.46a3.55,3.55,0,0,0-.29-1.43V47.69Z"></path><circle cx="66.72" cy="96.25" r="2.5"></circle><path d="M128,0H18a9,9,0,1,1-7.48,4A9,9,0,0,1,18,0H.33A11.89,11.89,0,0,0,0,2.91V38c0,.21,0,.35,0,.4A2,2,0,0,0,2.36,40L4,39.7c10.58-1.64,68.84-9.25,78.28,20C54.84,65,36.75,77.19,25,88.39A101.91,101.91,0,0,0,4,116.83a63.91,63.91,0,0,0-3.58,8.59,2,2,0,0,0,1.33,2.49c.18.06,119.06.09,126.2.09V67.82c0-4.72,0-7.78,0-8,0-.06,0-.11,0-.16a2,2,0,0,0-1.84-2L124,57.52c-4.23-.29-8.31-.43-12.25-.45V84.35a7.68,7.68,0,0,1,.29,2.11c0,5.78-6.11,9.66-15.2,9.66s-15.2-3.88-15.2-9.66,6.12-9.67,15.2-9.67c1,0,2,0,2.92.14V57.47c-4.71.32-9.2.84-13.46,1.53C81.76,44.08,67,37.49,51,34.92a8.9,8.9,0,0,1,1.28-7.78c3.94-5.7,18.49-14.47,71.65-9.68l2.14.2c1.11.1,1.76-.69,1.86-1.78S128,1.62,128,0ZM66.72,102.75a6.5,6.5,0,1,1,6.5-6.5A6.51,6.51,0,0,1,66.72,102.75Z"></path></svg>